<svg version="1.1" id="Layer_1" xmlns="http://www.w3.org/2000/svg" xmlns:xlink="http://www.w3.org/1999/xlink" x="0px" y="0px"
	 width="100%" viewBox="0 0 912 320" enable-background="new 0 0 912 320" xml:space="preserve">
<path fill="#D4B884" opacity="1.000000" stroke="none" 
	d="
M222.733292,277.849182 
	C178.817978,299.065460 135.939728,298.246338 95.119705,271.666199 
	C63.123817,250.831955 45.012856,220.445724 39.548016,182.531052 
	C34.692257,148.842148 40.494480,117.272835 59.652691,89.076942 
	C81.670807,56.672020 112.566933,38.599812 151.880630,34.529270 
	C209.375214,28.576277 263.459320,63.041004 281.929108,117.144737 
	C286.128540,129.446060 288.749298,142.159454 289.331726,155.222992 
	C289.444244,157.747482 288.865265,159.578995 286.484161,161.028946 
	C272.279816,169.678558 259.816895,180.379456 249.220398,193.227432 
	C248.726624,193.826126 248.003220,194.235443 246.278152,195.627670 
	C246.998718,189.060165 247.796173,183.638901 248.158920,178.188721 
	C250.688217,140.186142 245.083801,104.269424 219.591370,74.071159 
	C204.205307,55.844872 184.217316,46.327389 160.215714,47.592964 
	C135.828537,48.878864 117.122345,61.108604 102.890358,80.556564 
	C89.781502,98.469765 83.083282,118.774269 80.200897,140.609802 
	C76.833618,166.118729 78.566208,191.083618 87.448166,215.333984 
	C96.450798,239.913879 110.636276,260.329376 134.977356,272.025848 
	C164.094437,286.017303 198.746902,277.202698 220.701004,250.436813 
	C225.575775,244.493591 229.781937,238.097519 233.390579,231.310577 
	C250.454849,199.216934 275.748108,175.668060 307.851959,158.991028 
	C326.052979,149.536133 344.911011,141.507126 363.368683,132.616547 
	C364.234436,132.199554 365.139984,131.595276 366.678986,132.665375 
	C361.306488,151.564194 353.449341,169.892990 347.929596,190.504547 
	C352.562103,185.229660 355.029572,180.256042 357.948730,175.607574 
	C366.683990,161.697464 376.365356,148.587189 389.938263,138.953430 
	C398.716248,132.723007 408.296875,128.774414 419.423584,130.656448 
	C421.057434,130.932816 422.678955,131.329056 424.272461,131.787186 
	C427.971680,132.850723 429.345245,134.752243 427.690125,138.805374 
	C423.788330,148.360336 420.283295,158.077240 416.610565,167.725891 
	C416.199585,168.805481 415.904663,169.977905 414.433411,170.660934 
	C414.042511,170.497513 413.338409,170.393723 412.907043,169.994934 
	C402.229980,160.125107 391.380737,159.808426 379.891571,168.826233 
	C367.826874,178.295731 359.785675,190.964050 351.946686,203.753265 
	C337.333984,227.593735 326.913055,253.365585 317.533722,279.598145 
	C313.837921,289.934784 315.701782,288.159973 305.038147,288.268463 
	C297.589783,288.344208 290.140076,288.283081 282.814728,288.283081 
	C281.721039,284.729797 283.380524,282.417511 284.265717,280.010864 
	C295.300507,250.009521 306.890137,220.209747 317.048340,189.891083 
	C318.204346,186.440872 319.099915,182.833923 319.540222,179.229279 
	C320.246124,173.450562 316.562347,170.298782 310.957703,171.735657 
	C302.703827,173.851700 295.918457,178.721436 289.262451,183.771896 
	C287.649536,184.995773 287.526764,186.820038 287.157227,188.647369 
	C279.205322,227.967819 258.134949,257.868317 222.733292,277.849182 
z"/>
<path fill="#D4B884" opacity="1.000000" stroke="none" 
	d="
M537.375854,131.079117 
	C555.281677,135.425522 563.897766,147.674301 566.189819,167.944672 
	C571.592102,215.721252 534.647217,269.731506 492.027100,285.784241 
	C473.802765,292.648376 455.233398,294.743256 436.348785,288.275604 
	C429.443451,285.910645 423.281372,282.320312 418.614105,276.639008 
	C416.626373,274.219482 415.035370,274.343353 412.775665,276.063873 
	C407.474121,280.100403 402.087860,284.027527 396.681274,287.923157 
	C395.110229,289.055176 393.787994,290.748657 391.279388,290.719910 
	C391.012085,287.028748 393.045380,284.034027 394.215973,280.887817 
	C417.966003,217.052383 441.809021,153.251556 465.603180,89.432541 
	C467.231079,85.066315 468.668640,80.618637 468.657166,75.870323 
	C468.644226,70.503349 466.859833,68.363632 461.520477,67.419075 
	C458.598267,66.902115 455.547394,67.064049 452.438354,65.680145 
	C452.609344,62.228760 453.224030,59.012997 457.040771,57.822601 
	C476.611359,51.718758 495.760376,44.468578 514.775452,36.841499 
	C515.164734,36.685337 515.710510,36.919277 517.197144,37.082623 
	C501.421722,79.697395 485.763397,121.995903 470.105072,164.294418 
	C470.498596,164.606430 470.892120,164.918457 471.285645,165.230469 
	C488.059326,143.764969 507.455902,127.445160 537.375854,131.079117 
M531.988953,169.453445 
	C529.531372,152.769379 517.199707,145.966171 501.845703,152.897263 
	C497.267853,154.963776 493.251892,157.914078 489.459747,161.215332 
	C474.702606,174.062378 465.149475,190.650024 456.331299,207.678299 
	C448.617645,222.573792 440.955994,237.481689 438.817078,254.592804 
	C437.015808,269.002838 445.498138,279.511597 460.058960,279.679962 
	C473.427368,279.834564 484.049194,273.587738 493.444580,264.924286 
	C510.074646,249.589676 519.552490,229.891068 526.898621,208.964264 
	C531.294495,196.441742 533.867004,183.661545 531.988953,169.453445 
z"/>
<path fill="#D4B884" opacity="1.000000" stroke="none" 
	d="
M752.030273,119.052948 
	C793.347412,119.039093 834.170959,118.995766 874.994202,119.075493 
	C877.273438,119.079941 880.853882,117.418137 881.394287,121.563980 
	C881.868896,125.205795 877.309082,131.780151 874.502686,131.888916 
	C869.843079,132.069504 865.173645,132.023453 860.508301,132.022125 
	C820.685181,132.010818 780.861694,132.057709 741.039307,131.875595 
	C736.356079,131.854187 733.979126,133.142944 732.333252,137.792007 
	C718.612366,176.549698 704.595764,215.202621 690.730896,253.909592 
	C689.839722,256.397522 689.189514,259.041931 688.912048,261.664856 
	C688.347961,266.996857 691.548584,269.861542 696.810547,268.968750 
	C702.856934,267.942841 707.461365,264.349335 711.580017,260.155426 
	C715.894714,255.761826 720.053223,251.201492 724.068726,246.532379 
	C726.457825,243.754395 728.061768,245.550049 729.903870,247.000381 
	C731.723572,248.433105 734.026489,249.565201 731.747070,252.496994 
	C722.531616,264.350037 713.328369,276.214996 700.368774,284.356659 
	C694.535522,288.021332 688.250244,290.600189 681.355042,291.517853 
	C661.884827,294.109283 654.971558,281.482544 656.099854,266.438202 
	C656.921692,255.480133 661.015381,245.413467 664.653442,235.248047 
	C676.041870,203.426987 687.584412,171.661118 699.031067,139.860840 
	C701.651367,132.581131 701.273010,132.067123 693.332825,131.990845 
	C685.335632,131.914017 677.336975,131.991486 669.339233,131.952713 
	C667.390320,131.943253 665.335754,132.247223 663.413757,130.742844 
	C663.650085,127.356880 665.452087,124.491699 666.487854,121.396660 
	C667.202698,119.260376 668.995850,119.021584 670.881836,118.790489 
	C702.719421,114.889244 726.649719,98.152954 744.575562,72.392044 
	C748.200073,67.183357 751.700745,65.616020 758.230591,67.493340 
	C752.188904,84.160889 746.171265,100.762039 740.092834,117.530869 
	C743.964294,120.073769 747.890747,118.559441 752.030273,119.052948 
z"/>
<path fill="#D4B884" opacity="1.000000" stroke="none" 
	d="
M644.207153,145.869843 
	C631.619263,180.435486 619.092468,214.671783 606.637817,248.934326 
	C605.051514,253.298233 603.419678,257.713287 603.372803,262.452637 
	C603.317566,268.034698 606.437073,270.344910 611.856079,268.746643 
	C615.781799,267.588776 619.071045,265.226807 621.936157,262.439880 
	C626.230286,258.262970 630.430969,253.961716 634.353027,249.437347 
	C639.675476,243.297699 640.166809,243.198044 646.295410,250.211517 
	C634.139465,265.714996 622.341675,281.635529 602.936829,289.311371 
	C599.340454,290.733948 595.595703,291.164215 591.737549,291.496277 
	C575.471130,292.896179 569.224243,282.176788 570.190063,266.993164 
	C571.018982,253.962296 576.687378,242.264328 580.987976,230.240219 
	C589.398621,206.724838 598.276794,183.376999 606.786499,159.896393 
	C608.160095,156.106155 610.125793,153.923935 614.160767,152.802460 
	C623.136353,150.307800 631.944763,147.214417 640.838867,144.421021 
	C642.150208,144.009171 644.080811,142.329010 644.207153,145.869843 
z"/>
<path fill="#D4B884" opacity="1.000000" stroke="none" 
	d="
M591.387573,119.075333 
	C612.180908,119.068878 632.520447,119.068878 653.096924,119.068878 
	C652.821411,123.735397 651.087769,126.637527 650.043274,129.735077 
	C649.410522,131.611572 647.689758,131.981140 645.965149,131.977768 
	C625.669067,131.938110 605.372986,131.874924 585.077026,131.787491 
	C584.444885,131.784760 583.814270,131.454132 583.218872,131.286484 
	C582.959900,124.577606 586.012634,119.799278 591.387573,119.075333 
z"/>
</svg>